Coordinates
version=1
nRows=6
nColumns=36
inDegrees=yes

Units are S.I. units (second, meters, Newtons, ...)
If the header above contains a line with 'inDegrees', this indicates whether rotational values are in degrees (yes) or radians (no).

endheader
time	pelvis_tilt	pelvis_list	pelvis_rotation	pelvis_tx	pelvis_ty	pelvis_tz	hip_flexion_r	hip_adduction_r	hip_rotation_r	knee_angle_r	knee_angle_r_beta	ankle_angle_r	subtalar_angle_r	mtp_angle_r	hip_flexion_l	hip_adduction_l	hip_rotation_l	knee_angle_l	knee_angle_l_beta	ankle_angle_l	subtalar_angle_l	mtp_angle_l	lumbar_extension	lumbar_bending	lumbar_rotation	arm_flex_r	arm_add_r	arm_rot_r	elbow_flex_r	pro_sup_r	arm_flex_l	arm_add_l	arm_rot_l	elbow_flex_l	pro_sup_l
      0.00000000	     -4.87077604	      0.69031120	      7.52967462	     -0.14332053	      1.13779456	      0.12296280	     10.32342266	     -1.22096751	     -3.55996328	      2.37378583	      0.04143038	      5.84575302	      0.17577836	     -6.73330370	     12.39563019	     -1.01842703	     -1.55552263	      3.66649012	      0.06399232	      4.56313549	      3.02973611	     -6.73330370	     -7.57944508	      1.03269250	      1.36431209	    -17.00262401	    -10.16641683	     34.87307868	     55.68287024	     80.05805595	    -17.15801632	     -7.61571756	     43.32009249	     48.88233286	     65.00604230
      0.01666670	     -6.03023274	      0.79204624	      7.58057868	     -0.14223984	      1.13673586	      0.12315812	     11.97032598	     -1.34682155	     -3.17998536	      3.01803720	      0.05267469	      7.83722774	     -0.96395718	     -7.20784096	     13.62600969	     -0.28754476	     -0.22956233	      3.94628112	      0.06887560	      5.16379774	      2.92154176	     -7.20784096	     -5.31769481	      0.77477791	      2.83449887	    -18.42498456	     -9.50617278	     35.18951588	     54.03065107	     80.72416265	    -16.47852719	     -8.75359752	     44.12099801	     51.90231371	     69.32813565
      0.03333330	     -6.71492047	      1.53547672	      7.35421420	     -0.14149663	      1.14150514	      0.12459665	     12.14698564	     -1.92133720	     -3.77210409	      2.24596299	      0.03919945	      7.83777053	     -0.80332770	     -7.21979221	     14.01757552	      0.38168967	     -0.17224326	      3.59017556	      0.06266038	      4.96249043	      2.96673509	     -7.21979221	     -4.15342886	     -0.29860773	      2.87711617	    -18.02980976	     -8.48959534	     36.26069070	     51.35166555	     81.03835366	    -17.26946433	    -10.12278607	     47.32034441	     52.65640322	     69.96701376
      0.05000000	     -6.58096213	      1.92723643	      7.12877098	     -0.14213190	      1.14006477	      0.12453637	     11.66807995	     -2.20116254	     -3.97873978	      1.93407069	      0.03375590	      7.99427351	     -0.54012873	     -7.42013276	     13.59413499	      0.68028845	      0.00056003	      3.31969803	      0.05793966	      4.95552434	      2.90821594	     -7.42013276	     -4.05801300	     -0.49116291	      4.08757624	    -18.09654264	     -8.02782399	     35.82594458	     51.72545865	     85.90457509	    -15.30691634	    -11.70679702	     55.30775593	     53.01599654	     74.76324223
      0.06666670	     -6.75289413	      2.12795776	      7.12085736	     -0.14199638	      1.14008200	      0.12522439	     11.63657492	     -2.36329965	     -3.90824592	      1.54027428	      0.02688286	      7.92446177	     -0.43321415	     -7.46567927	     13.61125406	      0.92620567	      0.16547615	      3.15539758	      0.05507208	      4.71141327	      2.48603703	     -7.46567927	     -3.70773650	     -0.48304182	      5.09634753	    -18.39118535	     -7.83130960	     35.30465679	     52.33568327	     86.23129615	    -12.98028453	    -12.54907391	     62.34561923	     52.81707818	     75.91898002
      0.08333330	     -6.81846656	      2.21566064	      7.15969247	     -0.14171562	      1.13861382	      0.12497697	     11.62744576	     -2.43971739	     -4.06166229	      1.31498752	      0.02295086	      8.02065653	      0.03963065	     -7.49017971	     13.64476283	      1.05359367	      0.30225954	      3.03238639	      0.05292513	      4.51719286	      2.15515815	     -7.49017971	     -3.57605136	     -0.33773498	      5.27143288	    -17.99654902	     -8.31323985	     35.24807281	     53.55759448	     92.11307760	    -11.74006020	    -12.82204495	     66.72028445	     52.53288406	     78.10020701
